<svg xmlns="http://www.w3.org/2000/svg" xmlns:xlink="http://www.w3.org/1999/xlink" width="1920" zoomAndPan="magnify" viewBox="0 0 1440 809.999993" height="1080" preserveAspectRatio="xMidYMid meet" version="1.0"><defs><radialGradient gradientTransform="matrix(1, 0, 0, 1, 0.00000622222, 0.00002)" gradientUnits="userSpaceOnUse" r="826.090478" cx="719.999994" id="b829263f86" cy="404.999997" fx="719.999994" fy="404.999996"><stop stop-opacity="1" stop-color="rgb(73.165894%, 38.7146%, 22.674561%)" offset="0"/><stop stop-opacity="1" stop-color="rgb(72.966003%, 38.587952%, 22.637939%)" offset="0.0078125"/><stop stop-opacity="1" stop-color="rgb(72.833252%, 38.504028%, 22.615051%)" offset="0.0117188"/><stop stop-opacity="1" stop-color="rgb(72.698975%, 38.420105%, 22.590637%)" offset="0.015625"/><stop stop-opacity="1" stop-color="rgb(72.566223%, 38.336182%, 22.566223%)" offset="0.0195312"/><stop stop-opacity="1" stop-color="rgb(72.433472%, 38.252258%, 22.541809%)" offset="0.0234375"/><stop stop-opacity="1" stop-color="rgb(72.299194%, 38.168335%, 22.517395%)" offset="0.0273438"/><stop stop-opacity="1" stop-color="rgb(72.166443%, 38.084412%, 22.492981%)" offset="0.03125"/><stop stop-opacity="1" stop-color="rgb(72.033691%, 38.000488%, 22.468567%)" offset="0.0351562"/><stop stop-opacity="1" stop-color="rgb(71.899414%, 37.916565%, 22.444153%)" offset="0.0390625"/><stop stop-opacity="1" stop-color="rgb(71.766663%, 37.832642%, 22.421265%)" offset="0.0429688"/><stop stop-opacity="1" stop-color="rgb(71.633911%, 37.748718%, 22.396851%)" offset="0.046875"/><stop stop-opacity="1" stop-color="rgb(71.50116%, 37.664795%, 22.372437%)" offset="0.0507812"/><stop stop-opacity="1" stop-color="rgb(71.366882%, 37.580872%, 22.348022%)" offset="0.0546875"/><stop stop-opacity="1" stop-color="rgb(71.234131%, 37.496948%, 22.323608%)" offset="0.0585938"/><stop stop-opacity="1" stop-color="rgb(71.101379%, 37.413025%, 22.299194%)" offset="0.0625"/><stop stop-opacity="1" stop-color="rgb(70.967102%, 37.329102%, 22.27478%)" offset="0.0664062"/><stop stop-opacity="1" stop-color="rgb(70.834351%, 37.245178%, 22.250366%)" offset="0.0703125"/><stop stop-opacity="1" stop-color="rgb(70.701599%, 37.161255%, 22.227478%)" offset="0.0742188"/><stop stop-opacity="1" stop-color="rgb(70.567322%, 37.077332%, 22.203064%)" offset="0.078125"/><stop stop-opacity="1" stop-color="rgb(70.43457%, 36.993408%, 22.17865%)" offset="0.0820312"/><stop stop-opacity="1" stop-color="rgb(70.301819%, 36.909485%, 22.154236%)" offset="0.0859375"/><stop stop-opacity="1" stop-color="rgb(70.169067%, 36.825562%, 22.129822%)" offset="0.0898438"/><stop stop-opacity="1" stop-color="rgb(70.03479%, 36.741638%, 22.105408%)" offset="0.09375"/><stop stop-opacity="1" stop-color="rgb(69.902039%, 36.656189%, 22.080994%)" offset="0.0976562"/><stop stop-opacity="1" stop-color="rgb(69.769287%, 36.572266%, 22.058105%)" offset="0.101562"/><stop stop-opacity="1" stop-color="rgb(69.63501%, 36.488342%, 22.033691%)" offset="0.105469"/><stop stop-opacity="1" stop-color="rgb(69.502258%, 36.404419%, 22.009277%)" offset="0.109375"/><stop stop-opacity="1" stop-color="rgb(69.369507%, 36.320496%, 21.984863%)" offset="0.113281"/><stop stop-opacity="1" stop-color="rgb(69.236755%, 36.236572%, 21.960449%)" offset="0.117188"/><stop stop-opacity="1" stop-color="rgb(69.102478%, 36.152649%, 21.936035%)" offset="0.121094"/><stop stop-opacity="1" stop-color="rgb(68.969727%, 36.068726%, 21.911621%)" offset="0.125"/><stop stop-opacity="1" stop-color="rgb(68.836975%, 35.984802%, 21.887207%)" offset="0.128906"/><stop stop-opacity="1" stop-color="rgb(68.702698%, 35.900879%, 21.864319%)" offset="0.132812"/><stop stop-opacity="1" stop-color="rgb(68.569946%, 35.816956%, 21.839905%)" offset="0.136719"/><stop stop-opacity="1" stop-color="rgb(68.437195%, 35.733032%, 21.815491%)" offset="0.140625"/><stop stop-opacity="1" stop-color="rgb(68.302917%, 35.649109%, 21.791077%)" offset="0.144531"/><stop stop-opacity="1" stop-color="rgb(68.170166%, 35.565186%, 21.766663%)" offset="0.148438"/><stop stop-opacity="1" stop-color="rgb(68.037415%, 35.481262%, 21.742249%)" offset="0.152344"/><stop stop-opacity="1" stop-color="rgb(67.904663%, 35.397339%, 21.717834%)" offset="0.15625"/><stop stop-opacity="1" stop-color="rgb(67.770386%, 35.313416%, 21.69342%)" offset="0.160156"/><stop stop-opacity="1" stop-color="rgb(67.637634%, 35.229492%, 21.670532%)" offset="0.164062"/><stop stop-opacity="1" stop-color="rgb(67.504883%, 35.145569%, 21.646118%)" offset="0.167969"/><stop stop-opacity="1" stop-color="rgb(67.370605%, 35.061646%, 21.621704%)" offset="0.171875"/><stop stop-opacity="1" stop-color="rgb(67.237854%, 34.977722%, 21.59729%)" offset="0.175781"/><stop stop-opacity="1" stop-color="rgb(67.105103%, 34.893799%, 21.572876%)" offset="0.179688"/><stop stop-opacity="1" stop-color="rgb(66.970825%, 34.809875%, 21.548462%)" offset="0.183594"/><stop stop-opacity="1" stop-color="rgb(66.838074%, 34.725952%, 21.524048%)" offset="0.1875"/><stop stop-opacity="1" stop-color="rgb(66.705322%, 34.642029%, 21.499634%)" offset="0.191406"/><stop stop-opacity="1" stop-color="rgb(66.572571%, 34.55658%, 21.476746%)" offset="0.195312"/><stop stop-opacity="1" stop-color="rgb(66.438293%, 34.472656%, 21.452332%)" offset="0.199219"/><stop stop-opacity="1" stop-color="rgb(66.305542%, 34.388733%, 21.427917%)" offset="0.203125"/><stop stop-opacity="1" stop-color="rgb(66.172791%, 34.30481%, 21.403503%)" offset="0.207031"/><stop stop-opacity="1" stop-color="rgb(66.038513%, 34.220886%, 21.379089%)" offset="0.210938"/><stop stop-opacity="1" stop-color="rgb(65.905762%, 34.136963%, 21.354675%)" offset="0.214844"/><stop stop-opacity="1" stop-color="rgb(65.77301%, 34.05304%, 21.330261%)" offset="0.21875"/><stop stop-opacity="1" stop-color="rgb(65.640259%, 33.969116%, 21.305847%)" offset="0.222656"/><stop stop-opacity="1" stop-color="rgb(65.505981%, 33.885193%, 21.282959%)" offset="0.226562"/><stop stop-opacity="1" stop-color="rgb(65.37323%, 33.80127%, 21.258545%)" offset="0.230469"/><stop stop-opacity="1" stop-color="rgb(65.240479%, 33.717346%, 21.234131%)" offset="0.234375"/><stop stop-opacity="1" stop-color="rgb(65.106201%, 33.633423%, 21.209717%)" offset="0.238281"/><stop stop-opacity="1" stop-color="rgb(64.97345%, 33.5495%, 21.185303%)" offset="0.242188"/><stop stop-opacity="1" stop-color="rgb(64.840698%, 33.465576%, 21.160889%)" offset="0.246094"/><stop stop-opacity="1" stop-color="rgb(64.706421%, 33.381653%, 21.136475%)" offset="0.25"/><stop stop-opacity="1" stop-color="rgb(64.508057%, 33.256531%, 21.099854%)" offset="0.253906"/><stop stop-opacity="1" stop-color="rgb(64.241028%, 33.088684%, 21.052551%)" offset="0.261719"/><stop stop-opacity="1" stop-color="rgb(63.973999%, 32.920837%, 21.003723%)" offset="0.269531"/><stop stop-opacity="1" stop-color="rgb(63.708496%, 32.752991%, 20.954895%)" offset="0.277344"/><stop stop-opacity="1" stop-color="rgb(63.441467%, 32.583618%, 20.907593%)" offset="0.285156"/><stop stop-opacity="1" stop-color="rgb(63.175964%, 32.415771%, 20.858765%)" offset="0.292969"/><stop stop-opacity="1" stop-color="rgb(62.908936%, 32.247925%, 20.809937%)" offset="0.300781"/><stop stop-opacity="1" stop-color="rgb(62.641907%, 32.080078%, 20.761108%)" offset="0.308594"/><stop stop-opacity="1" stop-color="rgb(62.376404%, 31.912231%, 20.713806%)" offset="0.316406"/><stop stop-opacity="1" stop-color="rgb(62.109375%, 31.744385%, 20.664978%)" offset="0.324219"/><stop stop-opacity="1" stop-color="rgb(61.843872%, 31.576538%, 20.61615%)" offset="0.332031"/><stop stop-opacity="1" stop-color="rgb(61.576843%, 31.408691%, 20.567322%)" offset="0.339844"/><stop stop-opacity="1" stop-color="rgb(61.309814%, 31.240845%, 20.52002%)" offset="0.347656"/><stop stop-opacity="1" stop-color="rgb(61.044312%, 31.072998%, 20.471191%)" offset="0.355469"/><stop stop-opacity="1" stop-color="rgb(60.777283%, 30.905151%, 20.422363%)" offset="0.363281"/><stop stop-opacity="1" stop-color="rgb(60.51178%, 30.737305%, 20.373535%)" offset="0.371094"/><stop stop-opacity="1" stop-color="rgb(60.244751%, 30.569458%, 20.326233%)" offset="0.378906"/><stop stop-opacity="1" stop-color="rgb(59.977722%, 30.400085%, 20.277405%)" offset="0.386719"/><stop stop-opacity="1" stop-color="rgb(59.712219%, 30.232239%, 20.228577%)" offset="0.394531"/><stop stop-opacity="1" stop-color="rgb(59.44519%, 30.064392%, 20.179749%)" offset="0.402344"/><stop stop-opacity="1" stop-color="rgb(59.179688%, 29.896545%, 20.132446%)" offset="0.410156"/><stop stop-opacity="1" stop-color="rgb(58.912659%, 29.728699%, 20.083618%)" offset="0.417969"/><stop stop-opacity="1" stop-color="rgb(58.647156%, 29.560852%, 20.03479%)" offset="0.425781"/><stop stop-opacity="1" stop-color="rgb(58.380127%, 29.393005%, 19.985962%)" offset="0.433594"/><stop stop-opacity="1" stop-color="rgb(58.113098%, 29.225159%, 19.93866%)" offset="0.441406"/><stop stop-opacity="1" stop-color="rgb(57.847595%, 29.057312%, 19.889832%)" offset="0.449219"/><stop stop-opacity="1" stop-color="rgb(57.580566%, 28.889465%, 19.841003%)" offset="0.457031"/><stop stop-opacity="1" stop-color="rgb(57.315063%, 28.721619%, 19.792175%)" offset="0.464844"/><stop stop-opacity="1" stop-color="rgb(57.048035%, 28.553772%, 19.744873%)" offset="0.472656"/><stop stop-opacity="1" stop-color="rgb(56.781006%, 28.384399%, 19.696045%)" offset="0.480469"/><stop stop-opacity="1" stop-color="rgb(56.515503%, 28.216553%, 19.647217%)" offset="0.488281"/><stop stop-opacity="1" stop-color="rgb(56.248474%, 28.048706%, 19.598389%)" offset="0.496094"/><stop stop-opacity="1" stop-color="rgb(56.048584%, 27.922058%, 19.563293%)" offset="0.503906"/><stop stop-opacity="1" stop-color="rgb(55.915833%, 27.838135%, 19.538879%)" offset="0.507812"/><stop stop-opacity="1" stop-color="rgb(55.783081%, 27.754211%, 19.514465%)" offset="0.511719"/><stop stop-opacity="1" stop-color="rgb(55.648804%, 27.670288%, 19.490051%)" offset="0.515625"/><stop stop-opacity="1" stop-color="rgb(55.516052%, 27.586365%, 19.465637%)" offset="0.519531"/><stop stop-opacity="1" stop-color="rgb(55.383301%, 27.502441%, 19.441223%)" offset="0.523438"/><stop stop-opacity="1" stop-color="rgb(55.249023%, 27.418518%, 19.416809%)" offset="0.527344"/><stop stop-opacity="1" stop-color="rgb(55.116272%, 27.334595%, 19.393921%)" offset="0.53125"/><stop stop-opacity="1" stop-color="rgb(54.983521%, 27.250671%, 19.369507%)" offset="0.535156"/><stop stop-opacity="1" stop-color="rgb(54.850769%, 27.166748%, 19.345093%)" offset="0.539062"/><stop stop-opacity="1" stop-color="rgb(54.716492%, 27.082825%, 19.320679%)" offset="0.542969"/><stop stop-opacity="1" stop-color="rgb(54.58374%, 26.998901%, 19.296265%)" offset="0.546875"/><stop stop-opacity="1" stop-color="rgb(54.450989%, 26.914978%, 19.271851%)" offset="0.550781"/><stop stop-opacity="1" stop-color="rgb(54.316711%, 26.831055%, 19.247437%)" offset="0.554688"/><stop stop-opacity="1" stop-color="rgb(54.18396%, 26.747131%, 19.223022%)" offset="0.558594"/><stop stop-opacity="1" stop-color="rgb(54.051208%, 26.663208%, 19.200134%)" offset="0.5625"/><stop stop-opacity="1" stop-color="rgb(53.916931%, 26.579285%, 19.17572%)" offset="0.566406"/><stop stop-opacity="1" stop-color="rgb(53.78418%, 26.495361%, 19.151306%)" offset="0.570312"/><stop stop-opacity="1" stop-color="rgb(53.651428%, 26.411438%, 19.126892%)" offset="0.574219"/><stop stop-opacity="1" stop-color="rgb(53.518677%, 26.327515%, 19.102478%)" offset="0.578125"/><stop stop-opacity="1" stop-color="rgb(53.384399%, 26.243591%, 19.078064%)" offset="0.582031"/><stop stop-opacity="1" stop-color="rgb(53.251648%, 26.158142%, 19.05365%)" offset="0.585938"/><stop stop-opacity="1" stop-color="rgb(53.118896%, 26.074219%, 19.030762%)" offset="0.589844"/><stop stop-opacity="1" stop-color="rgb(52.984619%, 25.990295%, 19.006348%)" offset="0.59375"/><stop stop-opacity="1" stop-color="rgb(52.851868%, 25.906372%, 18.981934%)" offset="0.597656"/><stop stop-opacity="1" stop-color="rgb(52.719116%, 25.822449%, 18.95752%)" offset="0.601562"/><stop stop-opacity="1" stop-color="rgb(52.586365%, 25.738525%, 18.933105%)" offset="0.605469"/><stop stop-opacity="1" stop-color="rgb(52.452087%, 25.654602%, 18.908691%)" offset="0.609375"/><stop stop-opacity="1" stop-color="rgb(52.319336%, 25.570679%, 18.884277%)" offset="0.613281"/><stop stop-opacity="1" stop-color="rgb(52.186584%, 25.486755%, 18.859863%)" offset="0.617188"/><stop stop-opacity="1" stop-color="rgb(52.052307%, 25.402832%, 18.836975%)" offset="0.621094"/><stop stop-opacity="1" stop-color="rgb(51.919556%, 25.318909%, 18.812561%)" offset="0.625"/><stop stop-opacity="1" stop-color="rgb(51.719666%, 25.193787%, 18.77594%)" offset="0.628906"/><stop stop-opacity="1" stop-color="rgb(51.454163%, 25.02594%, 18.727112%)" offset="0.636719"/><stop stop-opacity="1" stop-color="rgb(51.187134%, 24.858093%, 18.678284%)" offset="0.644531"/><stop stop-opacity="1" stop-color="rgb(50.920105%, 24.690247%, 18.630981%)" offset="0.652344"/><stop stop-opacity="1" stop-color="rgb(50.654602%, 24.5224%, 18.582153%)" offset="0.660156"/><stop stop-opacity="1" stop-color="rgb(50.387573%, 24.354553%, 18.533325%)" offset="0.667969"/><stop stop-opacity="1" stop-color="rgb(50.12207%, 24.185181%, 18.484497%)" offset="0.675781"/><stop stop-opacity="1" stop-color="rgb(49.855042%, 24.017334%, 18.437195%)" offset="0.683594"/><stop stop-opacity="1" stop-color="rgb(49.588013%, 23.849487%, 18.388367%)" offset="0.691406"/><stop stop-opacity="1" stop-color="rgb(49.32251%, 23.681641%, 18.339539%)" offset="0.699219"/><stop stop-opacity="1" stop-color="rgb(49.055481%, 23.513794%, 18.29071%)" offset="0.707031"/><stop stop-opacity="1" stop-color="rgb(48.789978%, 23.345947%, 18.243408%)" offset="0.714844"/><stop stop-opacity="1" stop-color="rgb(48.522949%, 23.178101%, 18.19458%)" offset="0.722656"/><stop stop-opacity="1" stop-color="rgb(48.25592%, 23.010254%, 18.145752%)" offset="0.730469"/><stop stop-opacity="1" stop-color="rgb(47.990417%, 22.842407%, 18.096924%)" offset="0.738281"/><stop stop-opacity="1" stop-color="rgb(47.723389%, 22.674561%, 18.049622%)" offset="0.746094"/><stop stop-opacity="1" stop-color="rgb(47.523499%, 22.547913%, 18.013%)" offset="0.753906"/><stop stop-opacity="1" stop-color="rgb(47.390747%, 22.463989%, 17.988586%)" offset="0.757812"/><stop stop-opacity="1" stop-color="rgb(47.257996%, 22.380066%, 17.964172%)" offset="0.761719"/><stop stop-opacity="1" stop-color="rgb(47.123718%, 22.296143%, 17.939758%)" offset="0.765625"/><stop stop-opacity="1" stop-color="rgb(46.990967%, 22.212219%, 17.915344%)" offset="0.769531"/><stop stop-opacity="1" stop-color="rgb(46.858215%, 22.128296%, 17.892456%)" offset="0.773438"/><stop stop-opacity="1" stop-color="rgb(46.723938%, 22.044373%, 17.868042%)" offset="0.777344"/><stop stop-opacity="1" stop-color="rgb(46.591187%, 21.958923%, 17.843628%)" offset="0.78125"/><stop stop-opacity="1" stop-color="rgb(46.458435%, 21.875%, 17.819214%)" offset="0.785156"/><stop stop-opacity="1" stop-color="rgb(46.325684%, 21.791077%, 17.7948%)" offset="0.789062"/><stop stop-opacity="1" stop-color="rgb(46.191406%, 21.707153%, 17.770386%)" offset="0.792969"/><stop stop-opacity="1" stop-color="rgb(46.058655%, 21.62323%, 17.745972%)" offset="0.796875"/><stop stop-opacity="1" stop-color="rgb(45.925903%, 21.539307%, 17.721558%)" offset="0.800781"/><stop stop-opacity="1" stop-color="rgb(45.791626%, 21.455383%, 17.698669%)" offset="0.804688"/><stop stop-opacity="1" stop-color="rgb(45.658875%, 21.37146%, 17.674255%)" offset="0.808594"/><stop stop-opacity="1" stop-color="rgb(45.526123%, 21.287537%, 17.649841%)" offset="0.8125"/><stop stop-opacity="1" stop-color="rgb(45.326233%, 21.162415%, 17.61322%)" offset="0.816406"/><stop stop-opacity="1" stop-color="rgb(45.059204%, 20.994568%, 17.564392%)" offset="0.824219"/><stop stop-opacity="1" stop-color="rgb(44.793701%, 20.826721%, 17.515564%)" offset="0.832031"/><stop stop-opacity="1" stop-color="rgb(44.526672%, 20.658875%, 17.468262%)" offset="0.839844"/><stop stop-opacity="1" stop-color="rgb(44.261169%, 20.491028%, 17.419434%)" offset="0.847656"/><stop stop-opacity="1" stop-color="rgb(43.994141%, 20.323181%, 17.370605%)" offset="0.855469"/><stop stop-opacity="1" stop-color="rgb(43.727112%, 20.155334%, 17.321777%)" offset="0.863281"/><stop stop-opacity="1" stop-color="rgb(43.461609%, 19.985962%, 17.274475%)" offset="0.871094"/><stop stop-opacity="1" stop-color="rgb(43.261719%, 19.859314%, 17.237854%)" offset="0.878906"/><stop stop-opacity="1" stop-color="rgb(43.127441%, 19.775391%, 17.21344%)" offset="0.882812"/><stop stop-opacity="1" stop-color="rgb(42.99469%, 19.691467%, 17.189026%)" offset="0.886719"/><stop stop-opacity="1" stop-color="rgb(42.861938%, 19.607544%, 17.164612%)" offset="0.890625"/><stop stop-opacity="1" stop-color="rgb(42.729187%, 19.523621%, 17.140198%)" offset="0.894531"/><stop stop-opacity="1" stop-color="rgb(42.59491%, 19.439697%, 17.11731%)" offset="0.898438"/><stop stop-opacity="1" stop-color="rgb(42.462158%, 19.355774%, 17.092896%)" offset="0.902344"/><stop stop-opacity="1" stop-color="rgb(42.329407%, 19.271851%, 17.068481%)" offset="0.90625"/><stop stop-opacity="1" stop-color="rgb(42.129517%, 19.146729%, 17.03186%)" offset="0.910156"/><stop stop-opacity="1" stop-color="rgb(41.862488%, 18.978882%, 16.983032%)" offset="0.917969"/><stop stop-opacity="1" stop-color="rgb(41.596985%, 18.811035%, 16.93573%)" offset="0.925781"/><stop stop-opacity="1" stop-color="rgb(41.329956%, 18.643188%, 16.886902%)" offset="0.933594"/><stop stop-opacity="1" stop-color="rgb(41.130066%, 18.516541%, 16.850281%)" offset="0.941406"/><stop stop-opacity="1" stop-color="rgb(40.997314%, 18.432617%, 16.825867%)" offset="0.945312"/><stop stop-opacity="1" stop-color="rgb(40.863037%, 18.348694%, 16.801453%)" offset="0.949219"/><stop stop-opacity="1" stop-color="rgb(40.730286%, 18.264771%, 16.777039%)" offset="0.953125"/><stop stop-opacity="1" stop-color="rgb(40.530396%, 18.139648%, 16.741943%)" offset="0.957031"/><stop stop-opacity="1" stop-color="rgb(40.264893%, 17.971802%, 16.693115%)" offset="0.964844"/><stop stop-opacity="1" stop-color="rgb(40.065002%, 17.845154%, 16.656494%)" offset="0.972656"/><stop stop-opacity="1" stop-color="rgb(39.930725%, 17.759705%, 16.63208%)" offset="0.976562"/><stop stop-opacity="1" stop-color="rgb(39.732361%, 17.634583%, 16.595459%)" offset="0.980469"/><stop stop-opacity="1" stop-color="rgb(39.532471%, 17.507935%, 16.560364%)" offset="0.988281"/><stop stop-opacity="1" stop-color="rgb(39.332581%, 17.382812%, 16.523743%)" offset="0.992188"/><stop stop-opacity="1" stop-color="rgb(39.199829%, 17.298889%, 16.499329%)" offset="1"/></radialGradient><clipPath id="98d2b2380e"><path d="M 0 0 L 9 0 L 9 14 L 0 14 Z M 0 0 " clip-rule="nonzero"/></clipPath><clipPath id="cd7f9a6686"><path d="M -37.949219 26.792969 L -9.949219 26.792969 L 41.988281 -25.113281 L -37.949219 -25.113281 Z M -37.949219 26.792969 " clip-rule="nonzero"/></clipPath><clipPath id="ef53afb470"><path d="M 0 0 L 17 0 L 17 22 L 0 22 Z M 0 0 " clip-rule="nonzero"/></clipPath><clipPath id="de13660dcb"><path d="M -37.949219 26.792969 L -9.949219 26.792969 L 41.988281 -25.113281 L -37.949219 -25.113281 Z M -37.949219 26.792969 " clip-rule="nonzero"/></clipPath><clipPath id="44e367a334"><path d="M 23 0 L 42 0 L 42 22 L 23 22 Z M 23 0 " clip-rule="nonzero"/></clipPath><clipPath id="ee9d8ded81"><path d="M -37.949219 26.792969 L -9.949219 26.792969 L 41.988281 -25.113281 L -37.949219 -25.113281 Z M -37.949219 26.792969 " clip-rule="nonzero"/></clipPath><clipPath id="4e185151a4"><path d="M 15 0 L 42 0 L 42 14 L 15 14 Z M 15 0 " clip-rule="nonzero"/></clipPath><clipPath id="54b4256462"><path d="M -37.949219 26.792969 L -9.949219 26.792969 L 41.988281 -25.113281 L -37.949219 -25.113281 Z M -37.949219 26.792969 " clip-rule="nonzero"/></clipPath><clipPath id="5304f12178"><path d="M 0 0 L 29 0 L 29 2 L 0 2 Z M 0 0 " clip-rule="nonzero"/></clipPath><clipPath id="77f7536fca"><path d="M -9.949219 54.78125 L -9.949219 26.792969 L 41.988281 -25.113281 L 41.988281 54.78125 Z M -9.949219 54.78125 " clip-rule="nonzero"/></clipPath><clipPath id="22fc502bf5"><path d="M 0 8 L 29 8 L 29 49 L 0 49 Z M 0 8 " clip-rule="nonzero"/></clipPath><clipPath id="2557d6735e"><path d="M -9.949219 54.78125 L -9.949219 26.792969 L 41.988281 -25.113281 L 41.988281 54.78125 Z M -9.949219 54.78125 " clip-rule="nonzero"/></clipPath><clipPath id="c921d20637"><path d="M 3 0 L 37 0 L 37 50 L 3 50 Z M 3 0 " clip-rule="nonzero"/></clipPath><clipPath id="d4771929d2"><path d="M -9.949219 54.78125 L -9.949219 26.792969 L 41.988281 -25.113281 L 41.988281 54.78125 Z M -9.949219 54.78125 " clip-rule="nonzero"/></clipPath></defs><rect x="-144" width="1728" fill="#ffffff" y="-80.999999" height="971.999992" fill-opacity="1"/><rect x="-144" fill="url(#b829263f86)" width="1728" y="-80.999999" height="971.999992"/><path fill="#fdac00" d="M 36.441406 96.671875 L 19.367188 96.671875 L 19.367188 65.628906 L 4.519531 65.628906 L 4.519531 96.113281 L 3.40625 96.113281 L 3.40625 64.519531 L 20.480469 64.519531 L 20.480469 95.558594 L 35.332031 95.558594 L 35.332031 57.308594 L 36.441406 57.308594 Z M 36.441406 96.671875 " fill-opacity="1" fill-rule="nonzero"/><path fill="#fdac00" d="M 12.5 104.433594 L -4.414062 104.433594 L -4.414062 56.753906 L 28.460938 56.753906 L 28.460938 96.113281 L 27.351562 96.113281 L 27.351562 57.867188 L -3.300781 57.867188 L -3.300781 103.324219 L 11.386719 103.324219 L 11.386719 69.835938 L 12.5 69.835938 Z M 12.5 104.433594 " fill-opacity="1" fill-rule="nonzero"/><path fill="#fdac00" d="M -3.300781 150.445312 L -4.414062 150.445312 L -4.414062 111.085938 L 12.660156 111.085938 L 12.660156 142.128906 L 27.511719 142.128906 L 27.511719 111.640625 L 28.609375 111.640625 L 28.609375 143.238281 L 11.546875 143.238281 L 11.546875 112.195312 L -3.300781 112.195312 Z M -3.300781 150.445312 " fill-opacity="1" fill-rule="nonzero"/><path fill="#fdac00" d="M 36.441406 151 L 3.566406 151 L 3.566406 111.640625 L 4.679688 111.640625 L 4.679688 149.890625 L 35.332031 149.890625 L 35.332031 104.433594 L 20.628906 104.433594 L 20.628906 137.910156 L 19.527344 137.910156 L 19.527344 103.324219 L 36.441406 103.324219 Z M 36.441406 151 " fill-opacity="1" fill-rule="nonzero"/><path fill="#fdac00" d="M 36.441406 198.414062 L 19.367188 198.414062 L 19.367188 167.371094 L 4.519531 167.371094 L 4.519531 197.855469 L 3.40625 197.855469 L 3.40625 166.261719 L 20.480469 166.261719 L 20.480469 197.3125 L 35.332031 197.3125 L 35.332031 159.050781 L 36.441406 159.050781 Z M 36.441406 198.414062 " fill-opacity="1" fill-rule="nonzero"/><path fill="#fdac00" d="M 12.5 206.175781 L -4.414062 206.175781 L -4.414062 158.507812 L 28.460938 158.507812 L 28.460938 197.855469 L 27.351562 197.855469 L 27.351562 159.609375 L -3.300781 159.609375 L -3.300781 205.066406 L 11.386719 205.066406 L 11.386719 171.589844 L 12.5 171.589844 Z M 12.5 206.175781 " fill-opacity="1" fill-rule="nonzero"/><path fill="#fdac00" d="M -3.300781 252.1875 L -4.414062 252.1875 L -4.414062 212.828125 L 12.660156 212.828125 L 12.660156 243.871094 L 27.511719 243.871094 L 27.511719 213.382812 L 28.609375 213.382812 L 28.609375 244.980469 L 11.546875 244.980469 L 11.546875 213.9375 L -3.300781 213.9375 Z M -3.300781 252.1875 " fill-opacity="1" fill-rule="nonzero"/><path fill="#fdac00" d="M 36.441406 252.742188 L 3.566406 252.742188 L 3.566406 213.382812 L 4.679688 213.382812 L 4.679688 251.632812 L 35.332031 251.632812 L 35.332031 206.175781 L 20.628906 206.175781 L 20.628906 239.664062 L 19.527344 239.664062 L 19.527344 205.066406 L 36.441406 205.066406 Z M 36.441406 252.742188 " fill-opacity="1" fill-rule="nonzero"/><path fill="#fdac00" d="M 36.441406 300.164062 L 19.367188 300.164062 L 19.367188 269.113281 L 4.519531 269.113281 L 4.519531 299.609375 L 3.40625 299.609375 L 3.40625 268.011719 L 20.480469 268.011719 L 20.480469 299.054688 L 35.332031 299.054688 L 35.332031 260.804688 L 36.441406 260.804688 Z M 36.441406 300.164062 " fill-opacity="1" fill-rule="nonzero"/><path fill="#fdac00" d="M 12.5 307.929688 L -4.414062 307.929688 L -4.414062 260.25 L 28.460938 260.25 L 28.460938 299.609375 L 27.351562 299.609375 L 27.351562 261.359375 L -3.300781 261.359375 L -3.300781 306.816406 L 11.386719 306.816406 L 11.386719 273.332031 L 12.5 273.332031 Z M 12.5 307.929688 " fill-opacity="1" fill-rule="nonzero"/><path fill="#fdac00" d="M -3.300781 353.929688 L -4.414062 353.929688 L -4.414062 314.570312 L 12.660156 314.570312 L 12.660156 345.621094 L 27.511719 345.621094 L 27.511719 315.125 L 28.609375 315.125 L 28.609375 346.722656 L 11.546875 346.722656 L 11.546875 315.679688 L -3.300781 315.679688 Z M -3.300781 353.929688 " fill-opacity="1" fill-rule="nonzero"/><path fill="#fdac00" d="M 36.441406 354.484375 L 3.566406 354.484375 L 3.566406 315.125 L 4.679688 315.125 L 4.679688 353.386719 L 35.332031 353.386719 L 35.332031 307.929688 L 20.628906 307.929688 L 20.628906 341.40625 L 19.527344 341.40625 L 19.527344 306.816406 L 36.441406 306.816406 Z M 36.441406 354.484375 " fill-opacity="1" fill-rule="nonzero"/><path fill="#fdac00" d="M 36.441406 401.90625 L 19.367188 401.90625 L 19.367188 370.867188 L 4.519531 370.867188 L 4.519531 401.351562 L 3.40625 401.351562 L 3.40625 369.753906 L 20.480469 369.753906 L 20.480469 400.796875 L 35.332031 400.796875 L 35.332031 362.546875 L 36.441406 362.546875 Z M 36.441406 401.90625 " fill-opacity="1" fill-rule="nonzero"/><path fill="#fdac00" d="M 12.5 409.671875 L -4.414062 409.671875 L -4.414062 361.992188 L 28.460938 361.992188 L 28.460938 401.351562 L 27.351562 401.351562 L 27.351562 363.101562 L -3.300781 363.101562 L -3.300781 408.558594 L 11.386719 408.558594 L 11.386719 375.082031 L 12.5 375.082031 Z M 12.5 409.671875 " fill-opacity="1" fill-rule="nonzero"/><path fill="#fdac00" d="M -3.300781 455.683594 L -4.414062 455.683594 L -4.414062 416.324219 L 12.660156 416.324219 L 12.660156 447.363281 L 27.511719 447.363281 L 27.511719 416.878906 L 28.609375 416.878906 L 28.609375 448.476562 L 11.546875 448.476562 L 11.546875 417.433594 L -3.300781 417.433594 Z M -3.300781 455.683594 " fill-opacity="1" fill-rule="nonzero"/><path fill="#fdac00" d="M 36.441406 456.238281 L 3.566406 456.238281 L 3.566406 416.878906 L 4.679688 416.878906 L 4.679688 455.128906 L 35.332031 455.128906 L 35.332031 409.671875 L 20.628906 409.671875 L 20.628906 443.144531 L 19.527344 443.144531 L 19.527344 408.558594 L 36.441406 408.558594 Z M 36.441406 456.238281 " fill-opacity="1" fill-rule="nonzero"/><path fill="#fdac00" d="M 36.441406 503.648438 L 19.367188 503.648438 L 19.367188 472.609375 L 4.519531 472.609375 L 4.519531 503.105469 L 3.40625 503.105469 L 3.40625 471.496094 L 20.480469 471.496094 L 20.480469 502.550781 L 35.332031 502.550781 L 35.332031 464.300781 L 36.441406 464.300781 Z M 36.441406 503.648438 " fill-opacity="1" fill-rule="nonzero"/><path fill="#fdac00" d="M 12.5 511.414062 L -4.414062 511.414062 L -4.414062 463.746094 L 28.460938 463.746094 L 28.460938 503.105469 L 27.351562 503.105469 L 27.351562 464.84375 L -3.300781 464.84375 L -3.300781 510.300781 L 11.386719 510.300781 L 11.386719 476.824219 L 12.5 476.824219 Z M 12.5 511.414062 " fill-opacity="1" fill-rule="nonzero"/><path fill="#fdac00" d="M -3.300781 557.425781 L -4.414062 557.425781 L -4.414062 518.066406 L 12.660156 518.066406 L 12.660156 549.105469 L 27.511719 549.105469 L 27.511719 518.621094 L 28.609375 518.621094 L 28.609375 550.21875 L 11.546875 550.21875 L 11.546875 519.175781 L -3.300781 519.175781 Z M -3.300781 557.425781 " fill-opacity="1" fill-rule="nonzero"/><path fill="#fdac00" d="M 36.441406 557.980469 L 3.566406 557.980469 L 3.566406 518.621094 L 4.679688 518.621094 L 4.679688 556.871094 L 35.332031 556.871094 L 35.332031 511.414062 L 20.628906 511.414062 L 20.628906 544.898438 L 19.527344 544.898438 L 19.527344 510.300781 L 36.441406 510.300781 Z M 36.441406 557.980469 " fill-opacity="1" fill-rule="nonzero"/><path fill="#fdac00" d="M 36.441406 605.402344 L 19.367188 605.402344 L 19.367188 574.351562 L 4.519531 574.351562 L 4.519531 604.847656 L 3.40625 604.847656 L 3.40625 573.25 L 20.480469 573.25 L 20.480469 604.292969 L 35.332031 604.292969 L 35.332031 566.042969 L 36.441406 566.042969 Z M 36.441406 605.402344 " fill-opacity="1" fill-rule="nonzero"/><path fill="#fdac00" d="M 12.5 613.15625 L -4.414062 613.15625 L -4.414062 565.488281 L 28.460938 565.488281 L 28.460938 604.847656 L 27.351562 604.847656 L 27.351562 566.597656 L -3.300781 566.597656 L -3.300781 612.054688 L 11.386719 612.054688 L 11.386719 578.566406 L 12.5 578.566406 Z M 12.5 613.15625 " fill-opacity="1" fill-rule="nonzero"/><path fill="#fdac00" d="M -3.300781 659.167969 L -4.414062 659.167969 L -4.414062 619.816406 L 12.660156 619.816406 L 12.660156 650.859375 L 27.511719 650.859375 L 27.511719 620.363281 L 28.609375 620.363281 L 28.609375 651.960938 L 11.546875 651.960938 L 11.546875 620.917969 L -3.300781 620.917969 Z M -3.300781 659.167969 " fill-opacity="1" fill-rule="nonzero"/><path fill="#fdac00" d="M 36.441406 659.722656 L 3.566406 659.722656 L 3.566406 620.363281 L 4.679688 620.363281 L 4.679688 658.621094 L 35.332031 658.621094 L 35.332031 613.15625 L 20.628906 613.15625 L 20.628906 646.640625 L 19.527344 646.640625 L 19.527344 612.054688 L 36.441406 612.054688 Z M 36.441406 659.722656 " fill-opacity="1" fill-rule="nonzero"/><path fill="#fdac00" d="M 36.441406 707.144531 L 19.367188 707.144531 L 19.367188 676.101562 L 4.519531 676.101562 L 4.519531 706.589844 L 3.40625 706.589844 L 3.40625 674.992188 L 20.480469 674.992188 L 20.480469 706.035156 L 35.332031 706.035156 L 35.332031 667.785156 L 36.441406 667.785156 Z M 36.441406 707.144531 " fill-opacity="1" fill-rule="nonzero"/><path fill="#fdac00" d="M 12.5 714.90625 L -4.414062 714.90625 L -4.414062 667.230469 L 28.460938 667.230469 L 28.460938 706.589844 L 27.351562 706.589844 L 27.351562 668.339844 L -3.300781 668.339844 L -3.300781 713.796875 L 11.386719 713.796875 L 11.386719 680.308594 L 12.5 680.308594 Z M 12.5 714.90625 " fill-opacity="1" fill-rule="nonzero"/><path fill="#fdac00" d="M -3.300781 760.917969 L -4.414062 760.917969 L -4.414062 721.558594 L 12.660156 721.558594 L 12.660156 752.601562 L 27.511719 752.601562 L 27.511719 722.113281 L 28.609375 722.113281 L 28.609375 753.710938 L 11.546875 753.710938 L 11.546875 722.671875 L -3.300781 722.671875 Z M -3.300781 760.917969 " fill-opacity="1" fill-rule="nonzero"/><path fill="#fdac00" d="M 36.441406 761.476562 L 3.566406 761.476562 L 3.566406 722.113281 L 4.679688 722.113281 L 4.679688 760.363281 L 35.332031 760.363281 L 35.332031 714.90625 L 20.628906 714.90625 L 20.628906 748.382812 L 19.527344 748.382812 L 19.527344 713.796875 L 36.441406 713.796875 Z M 36.441406 761.476562 " fill-opacity="1" fill-rule="nonzero"/><path fill="#fdac00" d="M 36.441406 808.886719 L 19.367188 808.886719 L 19.367188 777.84375 L 4.519531 777.84375 L 4.519531 808.332031 L 3.40625 808.332031 L 3.40625 776.746094 L 20.480469 776.746094 L 20.480469 807.785156 L 35.332031 807.785156 L 35.332031 769.535156 L 36.441406 769.535156 Z M 36.441406 808.886719 " fill-opacity="1" fill-rule="nonzero"/><path fill="#fdac00" d="M 12.5 816.648438 L -4.414062 816.648438 L -4.414062 768.980469 L 28.460938 768.980469 L 28.460938 808.332031 L 27.351562 808.332031 L 27.351562 770.082031 L -3.300781 770.082031 L -3.300781 815.539062 L 11.386719 815.539062 L 11.386719 782.0625 L 12.5 782.0625 Z M 12.5 816.648438 " fill-opacity="1" fill-rule="nonzero"/><g clip-path="url(#98d2b2380e)"><g clip-path="url(#cd7f9a6686)"><path fill="#fdac00" d="M 8.035156 13.421875 L -24.433594 13.421875 L -24.433594 -3.628906 L 7.476562 -3.628906 L 7.476562 -18.472656 L -31.859375 -18.472656 L -31.859375 -19.582031 L 8.589844 -19.582031 L 8.589844 -2.519531 L -23.324219 -2.519531 L -23.324219 12.324219 L 8.035156 12.324219 Z M 8.035156 13.421875 " fill-opacity="1" fill-rule="nonzero"/></g></g><g clip-path="url(#ef53afb470)"><g clip-path="url(#de13660dcb)"><path fill="#fdac00" d="M 16.570312 21.238281 L -32.414062 21.238281 L -32.414062 -11.605469 L 8.035156 -11.605469 L 8.035156 -10.496094 L -31.304688 -10.496094 L -31.304688 20.140625 L 15.457031 20.140625 L 15.457031 5.457031 L -18.976562 5.457031 L -18.976562 4.347656 L 16.570312 4.347656 Z M 16.570312 21.238281 " fill-opacity="1" fill-rule="nonzero"/></g></g><g clip-path="url(#44e367a334)"><g clip-path="url(#ee9d8ded81)"><path fill="#fdac00" d="M 63.886719 21.238281 L 23.441406 21.238281 L 23.441406 4.1875 L 55.351562 4.1875 L 55.351562 -10.65625 L 23.996094 -10.65625 L 23.996094 -11.765625 L 56.464844 -11.765625 L 56.464844 5.296875 L 24.550781 5.296875 L 24.550781 20.140625 L 63.886719 20.140625 Z M 63.886719 21.238281 " fill-opacity="1" fill-rule="nonzero"/></g></g><g clip-path="url(#4e185151a4)"><g clip-path="url(#54b4256462)"><path fill="#fdac00" d="M 64.445312 13.273438 L 23.996094 13.273438 L 23.996094 12.164062 L 63.332031 12.164062 L 63.332031 -18.472656 L 16.570312 -18.472656 L 16.570312 -3.789062 L 51.003906 -3.789062 L 51.003906 -2.679688 L 15.457031 -2.679688 L 15.457031 -19.582031 L 64.445312 -19.582031 Z M 64.445312 13.273438 " fill-opacity="1" fill-rule="nonzero"/></g></g><g clip-path="url(#5304f12178)"><g clip-path="url(#77f7536fca)"><path fill="#fdac00" d="M 12.5 1.386719 L -4.414062 1.386719 L -4.414062 -47.570312 L 28.460938 -47.570312 L 28.460938 -7.144531 L 27.351562 -7.144531 L 27.351562 -46.460938 L -3.300781 -46.460938 L -3.300781 0.277344 L 11.386719 0.277344 L 11.386719 -34.136719 L 12.5 -34.136719 Z M 12.5 1.386719 " fill-opacity="1" fill-rule="nonzero"/></g></g><g clip-path="url(#22fc502bf5)"><g clip-path="url(#2557d6735e)"><path fill="#fdac00" d="M -3.300781 48.683594 L -4.414062 48.683594 L -4.414062 8.253906 L 12.660156 8.253906 L 12.660156 40.148438 L 27.511719 40.148438 L 27.511719 8.808594 L 28.609375 8.808594 L 28.609375 41.261719 L 11.546875 41.261719 L 11.546875 9.363281 L -3.300781 9.363281 Z M -3.300781 48.683594 " fill-opacity="1" fill-rule="nonzero"/></g></g><g clip-path="url(#c921d20637)"><g clip-path="url(#d4771929d2)"><path fill="#fdac00" d="M 36.441406 49.238281 L 3.566406 49.238281 L 3.566406 8.808594 L 4.679688 8.808594 L 4.679688 48.128906 L 35.332031 48.128906 L 35.332031 1.386719 L 20.628906 1.386719 L 20.628906 35.804688 L 19.527344 35.804688 L 19.527344 0.277344 L 36.441406 0.277344 Z M 36.441406 49.238281 " fill-opacity="1" fill-rule="nonzero"/></g></g><path fill="#fdac00" d="M 1445.605469 819.464844 L 1428.542969 819.464844 L 1428.542969 788.414062 L 1413.695312 788.414062 L 1413.695312 818.910156 L 1412.582031 818.910156 L 1412.582031 787.3125 L 1429.65625 787.3125 L 1429.65625 818.355469 L 1444.503906 818.355469 L 1444.503906 780.105469 L 1445.605469 780.105469 Z M 1445.605469 819.464844 " fill-opacity="1" fill-rule="nonzero"/><path fill="#fdac00" d="M 1421.675781 827.226562 L 1404.761719 827.226562 L 1404.761719 779.550781 L 1437.636719 779.550781 L 1437.636719 818.910156 L 1436.523438 818.910156 L 1436.523438 780.660156 L 1405.871094 780.660156 L 1405.871094 826.117188 L 1420.5625 826.117188 L 1420.5625 792.628906 L 1421.675781 792.628906 Z M 1421.675781 827.226562 " fill-opacity="1" fill-rule="nonzero"/><path fill="#fdac00" d="M 1405.871094 771.488281 L 1404.761719 771.488281 L 1404.761719 732.128906 L 1421.835938 732.128906 L 1421.835938 763.167969 L 1436.683594 763.167969 L 1436.683594 732.683594 L 1437.785156 732.683594 L 1437.785156 764.28125 L 1420.722656 764.28125 L 1420.722656 733.238281 L 1405.871094 733.238281 Z M 1405.871094 771.488281 " fill-opacity="1" fill-rule="nonzero"/><path fill="#fdac00" d="M 1445.605469 772.042969 L 1412.742188 772.042969 L 1412.742188 732.683594 L 1413.855469 732.683594 L 1413.855469 770.933594 L 1444.503906 770.933594 L 1444.503906 725.476562 L 1429.816406 725.476562 L 1429.816406 758.960938 L 1428.703125 758.960938 L 1428.703125 724.363281 L 1445.605469 724.363281 Z M 1445.605469 772.042969 " fill-opacity="1" fill-rule="nonzero"/><path fill="#fdac00" d="M 1445.605469 717.710938 L 1428.542969 717.710938 L 1428.542969 686.671875 L 1413.695312 686.671875 L 1413.695312 717.15625 L 1412.582031 717.15625 L 1412.582031 685.570312 L 1429.65625 685.570312 L 1429.65625 716.613281 L 1444.503906 716.613281 L 1444.503906 678.363281 L 1445.605469 678.363281 Z M 1445.605469 717.710938 " fill-opacity="1" fill-rule="nonzero"/><path fill="#fdac00" d="M 1421.675781 725.476562 L 1404.761719 725.476562 L 1404.761719 677.808594 L 1437.636719 677.808594 L 1437.636719 717.15625 L 1436.523438 717.15625 L 1436.523438 678.90625 L 1405.871094 678.90625 L 1405.871094 724.363281 L 1420.5625 724.363281 L 1420.5625 690.890625 L 1421.675781 690.890625 Z M 1421.675781 725.476562 " fill-opacity="1" fill-rule="nonzero"/><path fill="#fdac00" d="M 1405.871094 669.746094 L 1404.761719 669.746094 L 1404.761719 630.386719 L 1421.835938 630.386719 L 1421.835938 661.425781 L 1436.683594 661.425781 L 1436.683594 630.941406 L 1437.785156 630.941406 L 1437.785156 662.539062 L 1420.722656 662.539062 L 1420.722656 631.496094 L 1405.871094 631.496094 Z M 1405.871094 669.746094 " fill-opacity="1" fill-rule="nonzero"/><path fill="#fdac00" d="M 1445.605469 670.300781 L 1412.742188 670.300781 L 1412.742188 630.941406 L 1413.855469 630.941406 L 1413.855469 669.191406 L 1444.503906 669.191406 L 1444.503906 623.734375 L 1429.816406 623.734375 L 1429.816406 657.210938 L 1428.703125 657.210938 L 1428.703125 622.621094 L 1445.605469 622.621094 Z M 1445.605469 670.300781 " fill-opacity="1" fill-rule="nonzero"/><path fill="#fdac00" d="M 1445.605469 615.96875 L 1428.542969 615.96875 L 1428.542969 584.929688 L 1413.695312 584.929688 L 1413.695312 615.414062 L 1412.582031 615.414062 L 1412.582031 583.816406 L 1429.65625 583.816406 L 1429.65625 614.859375 L 1444.503906 614.859375 L 1444.503906 576.609375 L 1445.605469 576.609375 Z M 1445.605469 615.96875 " fill-opacity="1" fill-rule="nonzero"/><path fill="#fdac00" d="M 1421.675781 623.734375 L 1404.761719 623.734375 L 1404.761719 576.054688 L 1437.636719 576.054688 L 1437.636719 615.414062 L 1436.523438 615.414062 L 1436.523438 577.164062 L 1405.871094 577.164062 L 1405.871094 622.621094 L 1420.5625 622.621094 L 1420.5625 589.136719 L 1421.675781 589.136719 Z M 1421.675781 623.734375 " fill-opacity="1" fill-rule="nonzero"/><path fill="#fdac00" d="M 1405.871094 567.992188 L 1404.761719 567.992188 L 1404.761719 528.644531 L 1421.835938 528.644531 L 1421.835938 559.683594 L 1436.683594 559.683594 L 1436.683594 529.1875 L 1437.785156 529.1875 L 1437.785156 560.785156 L 1420.722656 560.785156 L 1420.722656 529.742188 L 1405.871094 529.742188 Z M 1405.871094 567.992188 " fill-opacity="1" fill-rule="nonzero"/><path fill="#fdac00" d="M 1445.605469 568.546875 L 1412.742188 568.546875 L 1412.742188 529.1875 L 1413.855469 529.1875 L 1413.855469 567.449219 L 1444.503906 567.449219 L 1444.503906 521.980469 L 1429.816406 521.980469 L 1429.816406 555.46875 L 1428.703125 555.46875 L 1428.703125 520.878906 L 1445.605469 520.878906 Z M 1445.605469 568.546875 " fill-opacity="1" fill-rule="nonzero"/><path fill="#fdac00" d="M 1445.605469 514.226562 L 1428.542969 514.226562 L 1428.542969 483.175781 L 1413.695312 483.175781 L 1413.695312 513.671875 L 1412.582031 513.671875 L 1412.582031 482.074219 L 1429.65625 482.074219 L 1429.65625 513.117188 L 1444.503906 513.117188 L 1444.503906 474.867188 L 1445.605469 474.867188 Z M 1445.605469 514.226562 " fill-opacity="1" fill-rule="nonzero"/><path fill="#fdac00" d="M 1421.675781 521.980469 L 1404.761719 521.980469 L 1404.761719 474.3125 L 1437.636719 474.3125 L 1437.636719 513.671875 L 1436.523438 513.671875 L 1436.523438 475.421875 L 1405.871094 475.421875 L 1405.871094 520.878906 L 1420.5625 520.878906 L 1420.5625 487.394531 L 1421.675781 487.394531 Z M 1421.675781 521.980469 " fill-opacity="1" fill-rule="nonzero"/><path fill="#fdac00" d="M 1405.871094 466.25 L 1404.761719 466.25 L 1404.761719 426.890625 L 1421.835938 426.890625 L 1421.835938 457.933594 L 1436.683594 457.933594 L 1436.683594 427.445312 L 1437.785156 427.445312 L 1437.785156 459.042969 L 1420.722656 459.042969 L 1420.722656 428 L 1405.871094 428 Z M 1405.871094 466.25 " fill-opacity="1" fill-rule="nonzero"/><path fill="#fdac00" d="M 1445.605469 466.804688 L 1412.742188 466.804688 L 1412.742188 427.445312 L 1413.855469 427.445312 L 1413.855469 465.695312 L 1444.503906 465.695312 L 1444.503906 420.238281 L 1429.816406 420.238281 L 1429.816406 453.726562 L 1428.703125 453.726562 L 1428.703125 419.128906 L 1445.605469 419.128906 Z M 1445.605469 466.804688 " fill-opacity="1" fill-rule="nonzero"/><path fill="#fdac00" d="M 1445.605469 412.476562 L 1428.542969 412.476562 L 1428.542969 381.433594 L 1413.695312 381.433594 L 1413.695312 411.929688 L 1412.582031 411.929688 L 1412.582031 380.324219 L 1429.65625 380.324219 L 1429.65625 411.375 L 1444.503906 411.375 L 1444.503906 373.125 L 1445.605469 373.125 Z M 1445.605469 412.476562 " fill-opacity="1" fill-rule="nonzero"/><path fill="#fdac00" d="M 1421.675781 420.238281 L 1404.761719 420.238281 L 1404.761719 372.570312 L 1437.636719 372.570312 L 1437.636719 411.929688 L 1436.523438 411.929688 L 1436.523438 373.671875 L 1405.871094 373.671875 L 1405.871094 419.128906 L 1420.5625 419.128906 L 1420.5625 385.652344 L 1421.675781 385.652344 Z M 1421.675781 420.238281 " fill-opacity="1" fill-rule="nonzero"/><path fill="#fdac00" d="M 1405.871094 364.507812 L 1404.761719 364.507812 L 1404.761719 325.148438 L 1421.835938 325.148438 L 1421.835938 356.191406 L 1436.683594 356.191406 L 1436.683594 325.703125 L 1437.785156 325.703125 L 1437.785156 357.300781 L 1420.722656 357.300781 L 1420.722656 326.257812 L 1405.871094 326.257812 Z M 1405.871094 364.507812 " fill-opacity="1" fill-rule="nonzero"/><path fill="#fdac00" d="M 1445.605469 365.0625 L 1412.742188 365.0625 L 1412.742188 325.703125 L 1413.855469 325.703125 L 1413.855469 363.953125 L 1444.503906 363.953125 L 1444.503906 318.496094 L 1429.816406 318.496094 L 1429.816406 351.972656 L 1428.703125 351.972656 L 1428.703125 317.386719 L 1445.605469 317.386719 Z M 1445.605469 365.0625 " fill-opacity="1" fill-rule="nonzero"/><path fill="#fdac00" d="M 1445.605469 310.734375 L 1428.542969 310.734375 L 1428.542969 279.691406 L 1413.695312 279.691406 L 1413.695312 310.179688 L 1412.582031 310.179688 L 1412.582031 278.582031 L 1429.65625 278.582031 L 1429.65625 309.621094 L 1444.503906 309.621094 L 1444.503906 271.375 L 1445.605469 271.375 Z M 1445.605469 310.734375 " fill-opacity="1" fill-rule="nonzero"/><path fill="#fdac00" d="M 1421.675781 318.496094 L 1404.761719 318.496094 L 1404.761719 270.816406 L 1437.636719 270.816406 L 1437.636719 310.179688 L 1436.523438 310.179688 L 1436.523438 271.929688 L 1405.871094 271.929688 L 1405.871094 317.386719 L 1420.5625 317.386719 L 1420.5625 283.910156 L 1421.675781 283.910156 Z M 1421.675781 318.496094 " fill-opacity="1" fill-rule="nonzero"/><path fill="#fdac00" d="M 1405.871094 262.757812 L 1404.761719 262.757812 L 1404.761719 223.394531 L 1421.835938 223.394531 L 1421.835938 254.449219 L 1436.683594 254.449219 L 1436.683594 223.953125 L 1437.785156 223.953125 L 1437.785156 255.546875 L 1420.722656 255.546875 L 1420.722656 224.507812 L 1405.871094 224.507812 Z M 1405.871094 262.757812 " fill-opacity="1" fill-rule="nonzero"/><path fill="#fdac00" d="M 1445.605469 263.3125 L 1412.742188 263.3125 L 1412.742188 223.953125 L 1413.855469 223.953125 L 1413.855469 262.210938 L 1444.503906 262.210938 L 1444.503906 216.753906 L 1429.816406 216.753906 L 1429.816406 250.230469 L 1428.703125 250.230469 L 1428.703125 215.644531 L 1445.605469 215.644531 Z M 1445.605469 263.3125 " fill-opacity="1" fill-rule="nonzero"/><path fill="#fdac00" d="M 1445.605469 208.992188 L 1428.542969 208.992188 L 1428.542969 177.9375 L 1413.695312 177.9375 L 1413.695312 208.4375 L 1412.582031 208.4375 L 1412.582031 176.839844 L 1429.65625 176.839844 L 1429.65625 207.878906 L 1444.503906 207.878906 L 1444.503906 169.632812 L 1445.605469 169.632812 Z M 1445.605469 208.992188 " fill-opacity="1" fill-rule="nonzero"/><path fill="#fdac00" d="M 1421.675781 216.753906 L 1404.761719 216.753906 L 1404.761719 169.074219 L 1437.636719 169.074219 L 1437.636719 208.4375 L 1436.523438 208.4375 L 1436.523438 170.1875 L 1405.871094 170.1875 L 1405.871094 215.644531 L 1420.5625 215.644531 L 1420.5625 182.15625 L 1421.675781 182.15625 Z M 1421.675781 216.753906 " fill-opacity="1" fill-rule="nonzero"/><path fill="#fdac00" d="M 1405.871094 161.015625 L 1404.761719 161.015625 L 1404.761719 121.652344 L 1421.835938 121.652344 L 1421.835938 152.695312 L 1436.683594 152.695312 L 1436.683594 122.210938 L 1437.785156 122.210938 L 1437.785156 153.804688 L 1420.722656 153.804688 L 1420.722656 122.765625 L 1405.871094 122.765625 Z M 1405.871094 161.015625 " fill-opacity="1" fill-rule="nonzero"/><path fill="#fdac00" d="M 1445.605469 161.570312 L 1412.742188 161.570312 L 1412.742188 122.210938 L 1413.855469 122.210938 L 1413.855469 160.457031 L 1444.503906 160.457031 L 1444.503906 115 L 1429.816406 115 L 1429.816406 148.488281 L 1428.703125 148.488281 L 1428.703125 113.890625 L 1445.605469 113.890625 Z M 1445.605469 161.570312 " fill-opacity="1" fill-rule="nonzero"/><path fill="#fdac00" d="M 1445.605469 107.238281 L 1428.542969 107.238281 L 1428.542969 76.195312 L 1413.695312 76.195312 L 1413.695312 106.683594 L 1412.582031 106.683594 L 1412.582031 75.085938 L 1429.65625 75.085938 L 1429.65625 106.140625 L 1444.503906 106.140625 L 1444.503906 67.878906 L 1445.605469 67.878906 Z M 1445.605469 107.238281 " fill-opacity="1" fill-rule="nonzero"/><path fill="#fdac00" d="M 1421.675781 115 L 1404.761719 115 L 1404.761719 67.335938 L 1437.636719 67.335938 L 1437.636719 106.683594 L 1436.523438 106.683594 L 1436.523438 68.433594 L 1405.871094 68.433594 L 1405.871094 113.890625 L 1420.5625 113.890625 L 1420.5625 80.414062 L 1421.675781 80.414062 Z M 1421.675781 115 " fill-opacity="1" fill-rule="nonzero"/><path fill="#fdac00" d="M 1405.871094 59.273438 L 1404.761719 59.273438 L 1404.761719 19.910156 L 1421.835938 19.910156 L 1421.835938 50.953125 L 1436.683594 50.953125 L 1436.683594 20.46875 L 1437.785156 20.46875 L 1437.785156 52.0625 L 1420.722656 52.0625 L 1420.722656 21.023438 L 1405.871094 21.023438 Z M 1405.871094 59.273438 " fill-opacity="1" fill-rule="nonzero"/><path fill="#fdac00" d="M 1445.605469 59.828125 L 1412.742188 59.828125 L 1412.742188 20.46875 L 1413.855469 20.46875 L 1413.855469 58.714844 L 1444.503906 58.714844 L 1444.503906 13.257812 L 1429.816406 13.257812 L 1429.816406 46.734375 L 1428.703125 46.734375 L 1428.703125 12.148438 L 1445.605469 12.148438 Z M 1445.605469 59.828125 " fill-opacity="1" fill-rule="nonzero"/><path fill="#fdac00" d="M 1445.605469 5.496094 L 1428.542969 5.496094 L 1428.542969 -25.546875 L 1413.695312 -25.546875 L 1413.695312 4.941406 L 1412.582031 4.941406 L 1412.582031 -26.65625 L 1429.65625 -26.65625 L 1429.65625 4.386719 L 1444.503906 4.386719 L 1444.503906 -33.863281 L 1445.605469 -33.863281 Z M 1445.605469 5.496094 " fill-opacity="1" fill-rule="nonzero"/><path fill="#fdac00" d="M 1421.675781 13.257812 L 1404.761719 13.257812 L 1404.761719 -34.417969 L 1437.636719 -34.417969 L 1437.636719 4.941406 L 1436.523438 4.941406 L 1436.523438 -33.308594 L 1405.871094 -33.308594 L 1405.871094 12.148438 L 1420.5625 12.148438 L 1420.5625 -21.339844 L 1421.675781 -21.339844 Z M 1421.675781 13.257812 " fill-opacity="1" fill-rule="nonzero"/></svg>