<svg xmlns="http://www.w3.org/2000/svg" xmlns:xlink="http://www.w3.org/1999/xlink" width="69" zoomAndPan="magnify" viewBox="0 0 51.75 912.749971" height="1217" preserveAspectRatio="xMidYMid meet" version="1.0"><path fill="#fdac00" d="M 45.667969 43.804688 L 28.675781 43.804688 L 28.675781 12.914062 L 13.898438 12.914062 L 13.898438 43.25 L 12.789062 43.25 L 12.789062 11.808594 L 29.78125 11.808594 L 29.78125 42.710938 L 44.5625 42.710938 L 44.5625 4.632812 L 45.667969 4.632812 Z M 45.667969 43.804688 " fill-opacity="1" fill-rule="nonzero"/><path fill="#fdac00" d="M 21.839844 51.53125 L 5.007812 51.53125 L 5.007812 4.09375 L 37.722656 4.09375 L 37.722656 43.25 L 36.617188 43.25 L 36.617188 5.1875 L 6.113281 5.1875 L 6.113281 50.425781 L 20.734375 50.425781 L 20.734375 17.109375 L 21.839844 17.109375 Z M 21.839844 51.53125 " fill-opacity="1" fill-rule="nonzero"/><path fill="#fdac00" d="M 6.113281 97.320312 L 5.007812 97.320312 L 5.007812 58.152344 L 22 58.152344 L 22 89.042969 L 36.777344 89.042969 L 36.777344 58.703125 L 37.871094 58.703125 L 37.871094 90.148438 L 20.894531 90.148438 L 20.894531 59.257812 L 6.113281 59.257812 Z M 6.113281 97.320312 " fill-opacity="1" fill-rule="nonzero"/><path fill="#fdac00" d="M 45.667969 97.875 L 12.949219 97.875 L 12.949219 58.703125 L 14.054688 58.703125 L 14.054688 96.769531 L 44.5625 96.769531 L 44.5625 51.53125 L 29.929688 51.53125 L 29.929688 84.855469 L 28.835938 84.855469 L 28.835938 50.425781 L 45.667969 50.425781 Z M 45.667969 97.875 " fill-opacity="1" fill-rule="nonzero"/><path fill="#fdac00" d="M 45.667969 145.066406 L 28.675781 145.066406 L 28.675781 114.164062 L 13.898438 114.164062 L 13.898438 144.515625 L 12.789062 144.515625 L 12.789062 113.070312 L 29.78125 113.070312 L 29.78125 143.960938 L 44.5625 143.960938 L 44.5625 105.898438 L 45.667969 105.898438 Z M 45.667969 145.066406 " fill-opacity="1" fill-rule="nonzero"/><path fill="#fdac00" d="M 21.839844 152.792969 L 5.007812 152.792969 L 5.007812 105.34375 L 37.722656 105.34375 L 37.722656 144.515625 L 36.617188 144.515625 L 36.617188 106.449219 L 6.113281 106.449219 L 6.113281 151.6875 L 20.734375 151.6875 L 20.734375 118.363281 L 21.839844 118.363281 Z M 21.839844 152.792969 " fill-opacity="1" fill-rule="nonzero"/><path fill="#fdac00" d="M 6.113281 198.574219 L 5.007812 198.574219 L 5.007812 159.402344 L 22 159.402344 L 22 190.308594 L 36.777344 190.308594 L 36.777344 159.957031 L 37.871094 159.957031 L 37.871094 191.402344 L 20.894531 191.402344 L 20.894531 160.507812 L 6.113281 160.507812 Z M 6.113281 198.574219 " fill-opacity="1" fill-rule="nonzero"/><path fill="#fdac00" d="M 45.667969 199.128906 L 12.949219 199.128906 L 12.949219 159.957031 L 14.054688 159.957031 L 14.054688 198.03125 L 44.5625 198.03125 L 44.5625 152.792969 L 29.929688 152.792969 L 29.929688 186.109375 L 28.835938 186.109375 L 28.835938 151.6875 L 45.667969 151.6875 Z M 45.667969 199.128906 " fill-opacity="1" fill-rule="nonzero"/><path fill="#fdac00" d="M 45.667969 246.320312 L 28.675781 246.320312 L 28.675781 215.429688 L 13.898438 215.429688 L 13.898438 245.769531 L 12.789062 245.769531 L 12.789062 214.324219 L 29.78125 214.324219 L 29.78125 245.214844 L 44.5625 245.214844 L 44.5625 207.148438 L 45.667969 207.148438 Z M 45.667969 246.320312 " fill-opacity="1" fill-rule="nonzero"/><path fill="#fdac00" d="M 21.839844 254.046875 L 5.007812 254.046875 L 5.007812 206.597656 L 37.722656 206.597656 L 37.722656 245.769531 L 36.617188 245.769531 L 36.617188 207.703125 L 6.113281 207.703125 L 6.113281 252.941406 L 20.734375 252.941406 L 20.734375 219.625 L 21.839844 219.625 Z M 21.839844 254.046875 " fill-opacity="1" fill-rule="nonzero"/><path fill="#fdac00" d="M 6.113281 299.839844 L 5.007812 299.839844 L 5.007812 260.667969 L 22 260.667969 L 22 291.558594 L 36.777344 291.558594 L 36.777344 261.21875 L 37.871094 261.21875 L 37.871094 292.664062 L 20.894531 292.664062 L 20.894531 261.773438 L 6.113281 261.773438 Z M 6.113281 299.839844 " fill-opacity="1" fill-rule="nonzero"/><path fill="#fdac00" d="M 45.667969 300.390625 L 12.949219 300.390625 L 12.949219 261.21875 L 14.054688 261.21875 L 14.054688 299.285156 L 44.5625 299.285156 L 44.5625 254.046875 L 29.929688 254.046875 L 29.929688 287.363281 L 28.835938 287.363281 L 28.835938 252.941406 L 45.667969 252.941406 Z M 45.667969 300.390625 " fill-opacity="1" fill-rule="nonzero"/><path fill="#fdac00" d="M 45.667969 347.574219 L 28.675781 347.574219 L 28.675781 316.679688 L 13.898438 316.679688 L 13.898438 347.03125 L 12.789062 347.03125 L 12.789062 315.578125 L 29.78125 315.578125 L 29.78125 346.480469 L 44.5625 346.480469 L 44.5625 308.414062 L 45.667969 308.414062 Z M 45.667969 347.574219 " fill-opacity="1" fill-rule="nonzero"/><path fill="#fdac00" d="M 21.839844 355.300781 L 5.007812 355.300781 L 5.007812 307.859375 L 37.722656 307.859375 L 37.722656 347.03125 L 36.617188 347.03125 L 36.617188 308.957031 L 6.113281 308.957031 L 6.113281 354.195312 L 20.734375 354.195312 L 20.734375 320.878906 L 21.839844 320.878906 Z M 21.839844 355.300781 " fill-opacity="1" fill-rule="nonzero"/><path fill="#fdac00" d="M 6.113281 401.089844 L 5.007812 401.089844 L 5.007812 361.921875 L 22 361.921875 L 22 392.8125 L 36.777344 392.8125 L 36.777344 362.472656 L 37.871094 362.472656 L 37.871094 393.917969 L 20.894531 393.917969 L 20.894531 363.027344 L 6.113281 363.027344 Z M 6.113281 401.089844 " fill-opacity="1" fill-rule="nonzero"/><path fill="#fdac00" d="M 45.667969 401.644531 L 12.949219 401.644531 L 12.949219 362.472656 L 14.054688 362.472656 L 14.054688 400.539062 L 44.5625 400.539062 L 44.5625 355.300781 L 29.929688 355.300781 L 29.929688 388.625 L 28.835938 388.625 L 28.835938 354.195312 L 45.667969 354.195312 Z M 45.667969 401.644531 " fill-opacity="1" fill-rule="nonzero"/><path fill="#fdac00" d="M 45.667969 448.835938 L 28.675781 448.835938 L 28.675781 417.933594 L 13.898438 417.933594 L 13.898438 448.285156 L 12.789062 448.285156 L 12.789062 416.839844 L 29.78125 416.839844 L 29.78125 447.730469 L 44.5625 447.730469 L 44.5625 409.667969 L 45.667969 409.667969 Z M 45.667969 448.835938 " fill-opacity="1" fill-rule="nonzero"/><path fill="#fdac00" d="M 21.839844 456.550781 L 5.007812 456.550781 L 5.007812 409.113281 L 37.722656 409.113281 L 37.722656 448.285156 L 36.617188 448.285156 L 36.617188 410.21875 L 6.113281 410.21875 L 6.113281 455.457031 L 20.734375 455.457031 L 20.734375 422.132812 L 21.839844 422.132812 Z M 21.839844 456.550781 " fill-opacity="1" fill-rule="nonzero"/><path fill="#fdac00" d="M 6.113281 502.34375 L 5.007812 502.34375 L 5.007812 463.183594 L 22 463.183594 L 22 494.078125 L 36.777344 494.078125 L 36.777344 463.726562 L 37.871094 463.726562 L 37.871094 495.171875 L 20.894531 495.171875 L 20.894531 464.277344 L 6.113281 464.277344 Z M 6.113281 502.34375 " fill-opacity="1" fill-rule="nonzero"/><path fill="#fdac00" d="M 45.667969 502.898438 L 12.949219 502.898438 L 12.949219 463.726562 L 14.054688 463.726562 L 14.054688 501.800781 L 44.5625 501.800781 L 44.5625 456.550781 L 29.929688 456.550781 L 29.929688 489.878906 L 28.835938 489.878906 L 28.835938 455.457031 L 45.667969 455.457031 Z M 45.667969 502.898438 " fill-opacity="1" fill-rule="nonzero"/><path fill="#fdac00" d="M 45.667969 550.089844 L 28.675781 550.089844 L 28.675781 519.199219 L 13.898438 519.199219 L 13.898438 549.539062 L 12.789062 549.539062 L 12.789062 518.09375 L 29.78125 518.09375 L 29.78125 548.984375 L 44.5625 548.984375 L 44.5625 510.917969 L 45.667969 510.917969 Z M 45.667969 550.089844 " fill-opacity="1" fill-rule="nonzero"/><path fill="#fdac00" d="M 21.839844 557.816406 L 5.007812 557.816406 L 5.007812 510.367188 L 37.722656 510.367188 L 37.722656 549.539062 L 36.617188 549.539062 L 36.617188 511.472656 L 6.113281 511.472656 L 6.113281 556.710938 L 20.734375 556.710938 L 20.734375 523.386719 L 21.839844 523.386719 Z M 21.839844 557.816406 " fill-opacity="1" fill-rule="nonzero"/><path fill="#fdac00" d="M 6.113281 603.609375 L 5.007812 603.609375 L 5.007812 564.4375 L 22 564.4375 L 22 595.328125 L 36.777344 595.328125 L 36.777344 564.988281 L 37.871094 564.988281 L 37.871094 596.433594 L 20.894531 596.433594 L 20.894531 565.542969 L 6.113281 565.542969 Z M 6.113281 603.609375 " fill-opacity="1" fill-rule="nonzero"/><path fill="#fdac00" d="M 45.667969 604.160156 L 12.949219 604.160156 L 12.949219 564.988281 L 14.054688 564.988281 L 14.054688 603.054688 L 44.5625 603.054688 L 44.5625 557.816406 L 29.929688 557.816406 L 29.929688 591.132812 L 28.835938 591.132812 L 28.835938 556.710938 L 45.667969 556.710938 Z M 45.667969 604.160156 " fill-opacity="1" fill-rule="nonzero"/><path fill="#fdac00" d="M 45.667969 651.34375 L 28.675781 651.34375 L 28.675781 620.449219 L 13.898438 620.449219 L 13.898438 650.789062 L 12.789062 650.789062 L 12.789062 619.355469 L 29.78125 619.355469 L 29.78125 650.25 L 44.5625 650.25 L 44.5625 612.183594 L 45.667969 612.183594 Z M 45.667969 651.34375 " fill-opacity="1" fill-rule="nonzero"/><path fill="#fdac00" d="M 21.839844 659.070312 L 5.007812 659.070312 L 5.007812 611.628906 L 37.722656 611.628906 L 37.722656 650.789062 L 36.617188 650.789062 L 36.617188 612.726562 L 6.113281 612.726562 L 6.113281 657.964844 L 20.734375 657.964844 L 20.734375 624.648438 L 21.839844 624.648438 Z M 21.839844 659.070312 " fill-opacity="1" fill-rule="nonzero"/><path fill="#fdac00" d="M 6.113281 704.859375 L 5.007812 704.859375 L 5.007812 665.691406 L 22 665.691406 L 22 696.582031 L 36.777344 696.582031 L 36.777344 666.242188 L 37.871094 666.242188 L 37.871094 697.6875 L 20.894531 697.6875 L 20.894531 666.792969 L 6.113281 666.792969 Z M 6.113281 704.859375 " fill-opacity="1" fill-rule="nonzero"/><path fill="#fdac00" d="M 45.667969 705.414062 L 12.949219 705.414062 L 12.949219 666.242188 L 14.054688 666.242188 L 14.054688 704.308594 L 44.5625 704.308594 L 44.5625 659.070312 L 29.929688 659.070312 L 29.929688 692.394531 L 28.835938 692.394531 L 28.835938 657.964844 L 45.667969 657.964844 Z M 45.667969 705.414062 " fill-opacity="1" fill-rule="nonzero"/><path fill="#fdac00" d="M 45.667969 752.605469 L 28.675781 752.605469 L 28.675781 721.703125 L 13.898438 721.703125 L 13.898438 752.054688 L 12.789062 752.054688 L 12.789062 720.609375 L 29.78125 720.609375 L 29.78125 751.5 L 44.5625 751.5 L 44.5625 713.4375 L 45.667969 713.4375 Z M 45.667969 752.605469 " fill-opacity="1" fill-rule="nonzero"/><path fill="#fdac00" d="M 21.839844 760.332031 L 5.007812 760.332031 L 5.007812 712.882812 L 37.722656 712.882812 L 37.722656 752.054688 L 36.617188 752.054688 L 36.617188 713.988281 L 6.113281 713.988281 L 6.113281 759.226562 L 20.734375 759.226562 L 20.734375 725.902344 L 21.839844 725.902344 Z M 21.839844 760.332031 " fill-opacity="1" fill-rule="nonzero"/><path fill="#fdac00" d="M 6.113281 806.125 L 5.007812 806.125 L 5.007812 766.953125 L 22 766.953125 L 22 797.84375 L 36.777344 797.84375 L 36.777344 767.496094 L 37.871094 767.496094 L 37.871094 798.949219 L 20.894531 798.949219 L 20.894531 768.046875 L 6.113281 768.046875 Z M 6.113281 806.125 " fill-opacity="1" fill-rule="nonzero"/><path fill="#fdac00" d="M 45.667969 806.664062 L 12.949219 806.664062 L 12.949219 767.496094 L 14.054688 767.496094 L 14.054688 805.570312 L 44.5625 805.570312 L 44.5625 760.332031 L 29.929688 760.332031 L 29.929688 793.648438 L 28.835938 793.648438 L 28.835938 759.226562 L 45.667969 759.226562 Z M 45.667969 806.664062 " fill-opacity="1" fill-rule="nonzero"/><path fill="#fdac00" d="M 45.667969 853.859375 L 28.675781 853.859375 L 28.675781 822.96875 L 13.898438 822.96875 L 13.898438 853.308594 L 12.789062 853.308594 L 12.789062 821.863281 L 29.78125 821.863281 L 29.78125 852.753906 L 44.5625 852.753906 L 44.5625 814.6875 L 45.667969 814.6875 Z M 45.667969 853.859375 " fill-opacity="1" fill-rule="nonzero"/><path fill="#fdac00" d="M 21.839844 861.585938 L 5.007812 861.585938 L 5.007812 814.136719 L 37.722656 814.136719 L 37.722656 853.308594 L 36.617188 853.308594 L 36.617188 815.242188 L 6.113281 815.242188 L 6.113281 860.480469 L 20.734375 860.480469 L 20.734375 827.164062 L 21.839844 827.164062 Z M 21.839844 861.585938 " fill-opacity="1" fill-rule="nonzero"/><path fill="#fdac00" d="M 6.113281 907.375 L 5.007812 907.375 L 5.007812 868.207031 L 22 868.207031 L 22 899.097656 L 36.777344 899.097656 L 36.777344 868.757812 L 37.871094 868.757812 L 37.871094 900.203125 L 20.894531 900.203125 L 20.894531 869.3125 L 6.113281 869.3125 Z M 6.113281 907.375 " fill-opacity="1" fill-rule="nonzero"/><path fill="#fdac00" d="M 45.667969 907.929688 L 12.949219 907.929688 L 12.949219 868.757812 L 14.054688 868.757812 L 14.054688 906.824219 L 44.5625 906.824219 L 44.5625 861.585938 L 29.929688 861.585938 L 29.929688 894.910156 L 28.835938 894.910156 L 28.835938 860.480469 L 45.667969 860.480469 Z M 45.667969 907.929688 " fill-opacity="1" fill-rule="nonzero"/></svg>